# xmcd
#
# Track frame offsets: 
#        150
#        25165
#        51842
#        73072
#        101976
#        126204
#        160944
#        183206
#        201009
#        232882
#
# Disc length: 3386 seconds
#
# Revision: 1
# Processed by: cddbd v1.5.2PL0 Copyright (c) Steve Scherf et al.
# Submitted via: ExactAudioCopy v0.99pb5
#
DISCID=850d380a
DTITLE=Nguyen Le - Saiyuki
DYEAR=2009
DGENRE=Jazz
TTITLE0=Sweet Ganesh
TTITLE1=Autumn Wind
TTITLE2=Mina Zuki
TTITLE3=Mayur
TTITLE4=Sangam
TTITLE5=Azur
TTITLE6=Izanagi Izanami
TTITLE7=Hen Ho
TTITLE8=Nanae Goromo
TTITLE9=Ila
EXTD=YEAR: 2009
EXTT0=
EXTT1=
EXTT2=
EXTT3=
EXTT4=
EXTT5=
EXTT6=
EXTT7=
EXTT8=
EXTT9=
PLAYORDER=
